<svg   viewBox="0 0 20 20" fill="none" xmlns="http://www.w3.org/2000/svg">
<path fill-rule="evenodd" clip-rule="evenodd" d="M2.5 12C3.88071 12 5 13.1193 5 14.5V17.5C5 18.8807 3.88071 20 2.5 20C1.11929 20 0 18.8807 0 17.5V14.5C0 13.1193 1.11929 12 2.5 12ZM10.5 7C11.8807 7 13 8.11929 13 9.5V17.5C13 18.8807 11.8807 20 10.5 20H9.5C8.11929 20 7 18.8807 7 17.5V9.5C7 8.11929 8.11929 7 9.5 7H10.5ZM17.5 12C18.8807 12 20 13.1193 20 14.5V17.5C20 18.8807 18.8807 20 17.5 20C16.1193 20 15 18.8807 15 17.5V14.5C15 13.1193 16.1193 12 17.5 12ZM2.5 6C3.88071 6 5 7.11929 5 8.5C5 9.88071 3.88071 11 2.5 11C1.11929 11 0 9.88071 0 8.5C0 7.11929 1.11929 6 2.5 6ZM17.5 6C18.8807 6 20 7.11929 20 8.5C20 9.88071 18.8807 11 17.5 11C16.1193 11 15 9.88071 15 8.5C15 7.11929 16.1193 6 17.5 6ZM10 0C11.6569 0 13 1.34315 13 3C13 4.65685 11.6569 6 10 6C8.34315 6 7 4.65685 7 3C7 1.34315 8.34315 0 10 0Z"   />
</svg>
