<svg   viewBox="0 0 20 20" fill="none" xmlns="http://www.w3.org/2000/svg">
<path fill-rule="evenodd" clip-rule="evenodd" d="M2 8H18V18C18 18.5523 17.5523 19 17 19H3C2.44772 19 2 18.5523 2 18V8Z"   />
<path fill-rule="evenodd" clip-rule="evenodd" d="M3 3H17C17.5523 3 18 3.44772 18 4V7H2V4C2 3.44772 2.44772 3 3 3Z"   />
<path d="M6 2C6 1.44772 5.55228 1 5 1C4.44772 1 4 1.44772 4 2V3C4 3.55228 4.44772 4 5 4C5.55228 4 6 3.55228 6 3V2Z"   />
<path d="M16 2C16 1.44772 15.5523 1 15 1C14.4477 1 14 1.44772 14 2V3C14 3.55228 14.4477 4 15 4C15.5523 4 16 3.55228 16 3V2Z"   />
</svg>
