<svg   viewBox="0 0 20 20" fill="none" xmlns="http://www.w3.org/2000/svg">
<path d="M19.9813 6.54412L18.85 1.95841C18.7113 1.39501 18.2113 1 17.6375 1H2.36375C1.79 1 1.29 1.39501 1.15 1.95841L0.01875 6.54412C0.00625 6.59349 0 6.6454 0 6.69731C0 8.44195 1.33125 9.86248 2.96875 9.86248C3.92 9.86248 4.76875 9.38264 5.3125 8.63819C5.85625 9.38264 6.705 9.86248 7.65625 9.86248C8.6075 9.86248 9.45625 9.38264 10 8.63819C10.5437 9.38264 11.3912 9.86248 12.3438 9.86248C13.2963 9.86248 14.1438 9.38264 14.6875 8.63819C15.2312 9.38264 16.0788 9.86248 17.0312 9.86248C18.6688 9.86248 20 8.44195 20 6.69731C20 6.6454 19.9938 6.59349 19.9813 6.54412Z"   />
<path d="M17.0312 11.1285C16.18 11.1285 15.3713 10.8652 14.6875 10.3841C13.32 11.3476 11.3675 11.3476 10 10.3841C8.6325 11.3476 6.68 11.3476 5.3125 10.3841C4.62875 10.8652 3.82 11.1285 2.96875 11.1285C2.355 11.1285 1.77625 10.9829 1.25 10.7348V17.7339C1.25 18.4328 1.81 19 2.5 19H7.5V13.6607H12.5V19H17.5C18.19 19 18.75 18.4328 18.75 17.7339V10.7348C18.2237 10.9829 17.645 11.1285 17.0312 11.1285Z"   />
</svg>
