<svg   viewBox="0 0 20 20" fill="none" xmlns="http://www.w3.org/2000/svg">
<path d="M18.4812 5.45224C18.4812 5.43321 18.4812 5.43321 18.4812 5.41419C18.4625 5.37613 18.4625 5.33808 18.4437 5.30003V5.281C18.4249 5.24295 18.3874 5.20489 18.3687 5.18587L18.3499 5.16684C18.3311 5.14781 18.2936 5.12879 18.2748 5.10976L18.2561 5.09073H18.2373L18.2185 5.07171L10.2439 1.05708C10.0938 0.980973 9.90618 0.980973 9.73731 1.05708L7.05408 2.40797L15.0662 6.57481L15.085 6.59384C15.1038 6.59384 15.1038 6.61287 15.1225 6.61287C15.1413 6.63189 15.1413 6.65092 15.16 6.66995C15.16 6.68897 15.16 6.68897 15.16 6.708V6.72703V11.1412C15.16 11.2173 15.1225 11.2744 15.0662 11.3125L13.4525 12.1687C13.3587 12.2257 13.2461 12.1877 13.1898 12.0925C13.1711 12.0735 13.1711 12.0355 13.1711 11.9974V7.67836L5.06512 3.43541L5.04636 3.41639L1.80022 5.05268L1.78146 5.07171H1.76269L1.74393 5.09073C1.72517 5.10976 1.68764 5.12879 1.66887 5.14781L1.65011 5.16684C1.61258 5.20489 1.59382 5.24295 1.55629 5.281V5.30003C1.53753 5.33808 1.51876 5.37613 1.51876 5.41419C1.51876 5.43321 1.51876 5.43321 1.51876 5.45224C1.51876 5.49029 1.5 5.50932 1.5 5.54737V5.5664V14.4328C1.5 14.6421 1.61258 14.8514 1.81898 14.9465L9.71854 18.9421C9.83113 18.9992 9.96247 19.0183 10.0938 18.9802L10.1313 18.9612C10.1689 18.9612 10.1876 18.9421 10.2252 18.9231L18.181 14.9275C18.3687 14.8324 18.5 14.6421 18.5 14.4138V5.5664V5.54737C18.4812 5.50932 18.4812 5.49029 18.4812 5.45224Z"   />
</svg>
