<svg   viewBox="0 0 20 20" fill="none" xmlns="http://www.w3.org/2000/svg">
<path d="M6.6663 6.68399C10.4817 6.68399 13.3326 5.18358 13.3326 3.84197C13.3326 2.50048 10.4816 1 6.6663 1C2.85097 1 6.10352e-05 2.50048 6.10352e-05 3.84197C6.10352e-05 5.18358 2.85091 6.68399 6.6663 6.68399Z"   />
<path d="M6.6663 18.0525C7.22319 18.0525 7.75918 18.0203 8.26902 17.9616C7.83926 17.4121 7.48385 16.8025 7.2176 16.1477C7.03466 16.1538 6.85109 16.158 6.66624 16.158C4.48613 16.158 2.42153 15.7283 0.852915 14.9481C0.544056 14.7944 0.259835 14.6294 6.10352e-05 14.4547V15.2105C6.10352e-05 16.552 2.85091 18.0525 6.6663 18.0525Z"   />
<path d="M6.66631 14.263C6.68586 14.263 6.7051 14.2627 6.7246 14.2626C6.68555 13.9521 6.66516 13.6358 6.66516 13.3149C6.66516 12.9941 6.68548 12.6781 6.7246 12.3678C6.7051 12.3678 6.6858 12.3685 6.66631 12.3685C4.4862 12.3685 2.42166 11.9387 0.852981 11.1585C0.544059 11.0049 0.259774 10.8398 0 10.6652V11.421C0 12.7625 2.85091 14.263 6.66631 14.263Z"   />
<path d="M6.66631 10.4734C6.85528 10.4734 7.04171 10.4696 7.2258 10.4624C7.52145 9.74088 7.92549 9.0744 8.41811 8.48335C7.84777 8.54588 7.26161 8.57904 6.66631 8.57904C4.4862 8.57904 2.42166 8.14932 0.852981 7.36907C0.544059 7.21539 0.259774 7.05039 0 6.87567V7.63153C0 8.97308 2.85091 10.4734 6.66631 10.4734Z"   />
<path d="M9.52375 10.1879C9.11165 10.8074 8.8172 11.5116 8.67236 12.2682C8.6055 12.617 8.57019 12.9769 8.57019 13.3449C8.57019 13.6216 8.59038 13.8936 8.62855 14.1598C8.72233 14.814 8.92724 15.4324 9.22353 15.9959C9.53442 16.5871 9.9457 17.1177 10.4348 17.5644C11.4513 18.4928 12.8032 19.0599 14.2851 19.0599C17.4363 19.0599 20 16.4961 20 13.3449C20 10.1936 17.4363 7.62988 14.2851 7.62988C13.9594 7.62988 13.6401 7.6577 13.3291 7.71027C11.7449 7.97818 10.3804 8.90014 9.52375 10.1879Z"   />
</svg>
