<svg   viewBox="0 0 20 20" fill="none" xmlns="http://www.w3.org/2000/svg">
<path d="M12.0001 2H8.00006C3.58886 2 0 5.5888 0 10C0 11.7998 0.590456 13.509 1.67959 14.9062L0.292922 16.2929C0.00692198 16.5789 -0.0786114 17.009 0.076122 17.3827C0.230922 17.7563 0.595589 18 0.999989 18H12C16.4112 18 20 14.4112 20 10C20 5.5888 16.4113 2 12.0001 2ZM6 11C5.44773 11 5 10.5523 5 10C5 9.44773 5.44773 9 6 9C6.55227 9 7 9.44773 7 10C7 10.5523 6.55227 11 6 11ZM10 11C9.44773 11 9 10.5523 9 10C9 9.44773 9.44773 9 10 9C10.5523 9 11 9.44773 11 10C11 10.5523 10.5523 11 10 11ZM14 11C13.4477 11 13 10.5523 13 10C13 9.44773 13.4477 9 14 9C14.5523 9 15 9.44773 15 10C15 10.5523 14.5523 11 14 11Z"   />
</svg>
